Patient4_TMGait_0pt7_01_left_29_EMG.mot
version=1
nRows=13
nColumns=33
inDegrees=no
endheader
time	1LAddLong	2LGlutMax	3LGlutMed	4LIliopsoas	5LSemiMemb	6LBicFemLong	7LRecFem	8LVastMed	9LVastLat	10LGasMed	11LTibAnt	12lTibPost	13LPeroneusLong	14LSol	15LExtDigLong	16LFlexDigLong	17RAddLong	18RGlutMax	19RGlutMed	20RIliopsoas	21RSemiMemb	22RBicFemLong	23RRecFem	24RVastMed	25RVastLat	26RGasMed	27RTibAnt	28RTibPost	29RPeroneusLong	30RSol	31RExtDigLong	32RFlexDigLong
34.265	0.007324	0.16129	0.13718	0.00946	0.078583	-0.33966	-0.22842	0.00824	0.013733	0.071259	0.001373	-0.30411	-0.23468	0.16632	-0.015259	0.012054	0.10849	-0.26672	-0.10986	-0.02121	0.071106	0.074615	0.11078	-0.32105	0.14175	0.000763	-0.006714	-0.002136	-0.40298	-0.006561	0.000153	-0.000916
34.266	-0.001068	0.10254	0.13351	0.007477	0.046234	0.067444	-0.23285	0.00351	0.007324	0.27908	0.008698	-0.043182	-0.18036	0.15976	-0.017242	0.039978	0.14221	-0.16495	-0.24612	-0.032349	-0.14221	0.32364	-0.37369	-0.20081	0.14648	-0.002289	-0.023193	-0.005798	0.22064	0.079956	0.002594	-0.005646
34.267	-0.006561	0.09964	0.13412	0.001678	0.023041	0.24231	-0.2124	0.011139	0.000153	0.51727	-0.005798	-0.066833	-0.079803	0.35233	-0.019684	0.60303	0.1915	-0.11978	-0.33341	-0.044861	-0.4657	0.39917	-0.32318	-0.094147	-0.014343	-0.002441	-0.0354	-0.007935	0.23071	0.12924	-0.001068	-0.005341
34.268	0.001373	0.13214	0.14557	0.005035	-0.001831	0.12894	-0.20477	0.011597	-0.002136	0.55176	-0.01236	0.13596	0.057831	0.5806	-0.021362	-0.89676	0.15793	-0.14252	-0.27298	-0.050049	-0.73059	0.38177	-0.1593	-0.092621	-0.012054	-0.003052	0.010529	-0.005951	-0.11993	0.032806	-0.006409	0.000763
34.269	0.000153	0.1091	0.14984	-0.004425	-0.020294	0.13412	-0.18631	0.000458	-0.00885	0.36835	-0.013123	0.095978	0.052338	0.43915	-0.018005	0.089722	0.13214	-0.13275	-0.12955	-0.17532	-0.36224	0.336	-0.05661	0.016937	0.12817	-0.00412	0.035248	-0.002747	-0.058136	0.027313	0.006256	-0.000305
34.27	-0.00351	0.15472	0.1564	-0.001831	-0.024109	0.233	-0.21454	-0.000153	0.001831	0.48889	-0.023956	0.038605	0.045929	0.009766	-0.002747	0.1413	0.12497	0.066223	-0.15717	-0.35095	0.3949	0.41031	0.15595	0.080109	0.099335	-0.008545	0.022736	-0.005798	0.13229	0.021973	0.000153	0.00061
34.271	-0.003204	0.19806	0.15839	0.013428	-0.024109	0.25971	-0.21881	0.001221	0.001221	0.39032	-0.00946	-0.063324	0.068512	-0.054626	0.018005	0.24826	0.066528	0.1033	-0.21042	-0.35339	0.49896	0.52231	0.16876	0.028381	0.46387	-0.007172	0.00473	-0.003967	0.12955	-0.032959	0.00351	-0.001678
34.272	0.012512	0.18631	0.1709	0.017242	0.002747	0.25742	-0.20599	0.001678	0.00946	0.54336	-0.023956	-0.09491	0.094299	-0.0354	0.011749	0.1973	0.005493	0.062103	-0.23712	-0.1474	0.43884	0.53879	0.13504	0.015411	0.48553	-0.002594	-0.006561	-0.012054	0.051727	-0.057678	-0.002289	-0.001068
34.273	0.006409	0.19669	0.15488	0.014343	-0.016785	0.28503	-0.19211	0.004578	0.003052	0.3125	-0.024719	-0.053864	0.04364	-0.43381	-0.005951	0.14145	-0.070496	0.16922	-0.28686	0.16647	0.27237	0.46799	0.034943	0.12299	0.44113	-0.001068	0.007172	-0.002136	0.041046	-0.051117	0.002899	-0.011597
34.274	-0.005646	0.21896	0.16449	0.003662	0.001221	0.30579	-0.17777	0.005341	-0.00885	-0.72327	0.010376	-0.031433	-0.026398	-0.57846	-0.02655	-0.31845	-0.068665	0.17731	-0.34454	0.37003	0.1001	0.5011	-0.094452	0.10925	0.46204	-0.002289	0.041046	-0.002594	-0.057678	-0.032196	-0.000153	-0.004578
34.275	-0.001526	0.21805	0.16037	-0.002441	-0.017395	-0.23834	-0.16312	0.005035	-0.000305	-0.71899	-0.004425	-0.042267	-0.02243	-0.48859	-0.033417	0.16113	-0.065308	0.26459	-0.2626	0.35492	0.11551	0.55313	-0.14496	0.056458	0.90164	-0.007324	0.027771	-0.005035	-0.054321	-0.027466	-0.002899	-0.008392
34.276	0.002747	0.21652	0.17242	-0.009308	-0.036926	-0.16281	-0.17929	0.007935	-0.006104	-0.19089	-0.011292	-0.028076	-0.024261	-0.47699	-0.049438	0.034943	-0.080414	0.22614	-0.22644	0.17807	0.30075	0.448	-0.027161	-0.066376	0.72525	-0.006714	0.037079	0.000153	-0.1474	-0.034332	-0.001526	-0.005951
34.277	0.007935	0.19547	0.15823	0.002899	-0.059967	-0.37354	-0.1648	0.00946	-0.005951	0.19257	0.009766	0.026093	-0.03067	-0.24765	-0.032349	0.12009	-0.12238	0.2739	-0.18585	0.047455	0.22263	0.44968	0.017242	-0.13016	0.23422	-0.011902	0.098877	-0.002136	-0.20096	-0.027924	-0.001068	-0.00061
